<?xml version="1.0" standalone="no"?>
<!DOCTYPE svg PUBLIC "-//W3C//DTD SVG 20010904//EN"
 "http://www.w3.org/TR/2001/REC-SVG-20010904/DTD/svg10.dtd">
<svg version="1.0" xmlns="http://www.w3.org/2000/svg"
 width="543.000000pt" height="543.000000pt" viewBox="0 0 543.000000 543.000000"
 preserveAspectRatio="xMidYMid meet">
<metadata>
Created by potrace 1.11, written by Peter Selinger 2001-2013
</metadata>
<g transform="translate(0.000000,543.000000) scale(0.100000,-0.100000)"
fill="#000000" stroke="none">
<path d="M2558 5415 c-2 -2 -37 -6 -78 -9 -64 -5 -252 -34 -325 -50 -94 -21
-133 -31 -220 -57 -119 -37 -324 -119 -409 -164 -193 -102 -244 -133 -351
-209 -205 -147 -380 -309 -540 -501 -138 -166 -311 -450 -393 -645 -13 -30
-28 -64 -33 -75 -67 -146 -158 -514 -174 -706 -4 -41 -9 -85 -11 -99 -6 -36
-6 -348 0 -390 3 -19 7 -64 10 -100 3 -36 8 -74 10 -85 2 -11 7 -42 10 -68 4
-27 9 -59 12 -70 2 -12 6 -34 9 -48 16 -89 98 -367 125 -424 5 -11 23 -54 40
-95 37 -88 140 -286 181 -348 16 -24 29 -45 29 -47 0 -3 28 -44 62 -91 267
-376 616 -674 1023 -874 187 -91 305 -137 482 -185 125 -33 151 -39 223 -51
19 -3 51 -9 70 -15 37 -9 817 -7 860 3 14 3 43 9 65 13 228 39 546 151 775
273 87 46 344 213 392 254 14 13 57 49 95 80 66 55 228 218 307 308 210 241
407 596 515 930 26 80 78 290 86 350 4 25 10 63 15 85 5 22 9 197 9 390 0 366
0 371 -55 635 -16 79 -87 302 -119 375 -7 17 -27 64 -45 105 -197 456 -557
877 -995 1166 -195 128 -441 245 -660 313 -55 17 -114 36 -131 41 -40 13 -119
30 -209 44 -23 3 -52 9 -65 11 -29 6 -99 16 -150 21 -43 5 -438 13 -442 9z"/>
</g>
</svg>
